M48
; DRILL file KiCad 10.0.5 date 2026-08-16T19:04:24
; FORMAT={-:-/ absolute / metric / decimal}
; #@! TF.CreationDate,2026-08-16T19:04:24+05:30
; #@! TF.GenerationSoftware,Kicad,Pcbnew,10.0.5
; #@! TF.FileFunction,Plated,1,6,PTH
FMAT,2
METRIC
; #@! TA.AperFunction,Plated,PTH,ViaDrill
T1C0.100
; #@! TA.AperFunction,Plated,PTH,ViaDrill
T2C0.150
; #@! TA.AperFunction,Plated,PTH,ComponentDrill
T3C0.600
; #@! TA.AperFunction,Plated,PTH,ComponentDrill
T4C0.889
; #@! TA.AperFunction,Plated,PTH,ComponentDrill
T5C0.900
; #@! TA.AperFunction,Plated,PTH,ComponentDrill
T6C1.016
; #@! TA.AperFunction,Plated,PTH,ComponentDrill
T7C1.400
; #@! TA.AperFunction,Plated,PTH,ComponentDrill
T8C1.600
; #@! TA.AperFunction,Plated,PTH,ComponentDrill
T9C1.600
; #@! TA.AperFunction,Plated,PTH,ComponentDrill
T10C1.956
; #@! TA.AperFunction,Plated,PTH,ComponentDrill
T11C3.700
%
G90
G05
T1
X37.848Y-171.776
X37.858Y-165.816
X37.888Y-112.966
X37.908Y-178.837
X37.968Y-121.486
X37.978Y-120.456
X38.648Y-124.986
X39.148Y-124.486
X39.188Y-125.556
X39.648Y-123.986
X39.688Y-125.056
X39.838Y-164.237
X39.838Y-164.85
X40.1Y-161.15
X40.148Y-123.486
X40.168Y-153.207
X40.178Y-156.136
X40.188Y-124.556
X40.518Y-158.526
X40.588Y-164.237
X40.588Y-164.85
X40.608Y-129.346
X40.648Y-122.986
X40.688Y-124.056
X40.688Y-136.036
X40.748Y-157.636
X41.003Y-146.881
X41.028Y-149.466
X41.188Y-123.556
X41.55Y-167.2
X41.913Y-146.881
X41.938Y-149.466
X42.823Y-146.881
X42.848Y-149.466
X43.733Y-146.881
X43.758Y-149.466
X43.818Y-134.256
X44.188Y-165.367
X44.208Y-128.416
X44.238Y-162.287
X44.643Y-146.881
X44.668Y-149.466
X44.768Y-178.796
X45.553Y-146.881
X45.578Y-149.466
X45.828Y-162.556
X46.043Y-133.566
X46.268Y-112.466
X46.268Y-114.266
X46.268Y-116.066
X46.268Y-117.866
X46.268Y-119.666
X46.378Y-172.596
X46.608Y-128.726
X46.608Y-169.316
X46.903Y-146.856
X46.928Y-149.441
X47.198Y-154.677
X47.418Y-134.446
X47.813Y-146.856
X47.838Y-149.441
X48.178Y-129.076
X48.178Y-158.796
X48.188Y-165.436
X48.228Y-134.006
X48.268Y-134.786
X48.315Y-136.113
X48.498Y-127.476
X48.723Y-146.856
X48.748Y-126.736
X48.748Y-149.441
X48.838Y-154.386
X48.848Y-158.476
X48.893Y-135.517
X49.418Y-134.992
X49.633Y-146.856
X49.658Y-149.441
X49.688Y-117.216
X49.688Y-117.966
X49.688Y-118.666
X49.688Y-119.366
X49.708Y-120.316
X49.708Y-121.016
X49.708Y-121.716
X49.862Y-126.066
X49.878Y-124.266
X49.893Y-130.716
X49.893Y-131.416
X49.893Y-132.117
X50.388Y-117.216
X50.393Y-117.966
X50.393Y-118.666
X50.393Y-119.366
X50.543Y-146.856
X50.568Y-149.441
X50.593Y-130.716
X50.593Y-131.416
X50.593Y-132.117
X50.728Y-154.356
X50.728Y-158.526
X51.088Y-117.216
X51.093Y-117.966
X51.093Y-118.666
X51.093Y-119.366
X51.293Y-130.716
X51.293Y-131.416
X51.293Y-132.117
X51.318Y-162.576
X51.378Y-156.356
X51.378Y-165.436
X51.453Y-146.856
X51.478Y-149.441
X51.628Y-158.806
X51.908Y-120.337
X51.908Y-121.036
X51.908Y-121.736
X51.918Y-175.026
X51.928Y-178.617
X52.243Y-134.832
X52.318Y-126.016
X52.718Y-154.566
X52.728Y-156.957
X52.728Y-157.656
X52.828Y-146.856
X52.853Y-149.441
X52.968Y-162.617
X53.318Y-112.466
X53.318Y-114.266
X53.508Y-172.356
X53.738Y-146.856
X53.758Y-166.446
X53.763Y-149.441
X54.208Y-159.106
X54.398Y-152.596
X54.648Y-146.856
X54.673Y-149.441
X54.838Y-173.446
X54.868Y-156.427
X55.243Y-159.066
X55.488Y-156.427
X55.558Y-146.856
X55.568Y-157.166
X55.583Y-149.441
X56.468Y-146.856
X56.493Y-149.441
X56.728Y-154.367
X56.728Y-173.457
X57.378Y-146.856
X57.403Y-149.441
X57.618Y-130.296
X57.668Y-156.066
X57.768Y-156.776
X58.458Y-162.566
X58.628Y-173.496
X58.629Y-165.447
X58.768Y-179.106
X58.778Y-146.856
X58.803Y-149.441
X59.068Y-153.891
X59.528Y-156.487
X59.678Y-130.296
X59.678Y-172.356
X59.688Y-146.856
X59.713Y-149.441
X60.198Y-162.656
X60.418Y-171.966
X60.543Y-176.225
X60.543Y-177.25
X60.598Y-146.856
X60.623Y-149.441
X61.188Y-171.226
X61.508Y-146.856
X61.533Y-149.441
X62.328Y-130.326
X62.358Y-167.076
X62.408Y-157.457
X62.418Y-146.856
X62.433Y-164.136
X62.433Y-164.971
X62.443Y-149.441
X62.443Y-161.141
X62.516Y-178.807
X62.526Y-174.653
X62.818Y-176.201
X62.818Y-177.225
X63.328Y-146.856
X63.353Y-149.441
X63.418Y-153.927
X63.508Y-168.316
X63.993Y-136.117
X64.093Y-175.791
X64.093Y-177.591
X64.343Y-176.341
X64.343Y-177.041
X64.358Y-139.006
X64.493Y-160.166
X64.628Y-157.867
X64.638Y-157.006
X64.825Y-167.091
X64.868Y-130.316
X64.893Y-171.617
X64.893Y-172.742
X65.4Y-160.325
X65.5Y-167.776
X65.61Y-168.49
X65.62Y-169.78
X65.63Y-166.705
X65.66Y-170.416
X66.139Y-172.162
X66.518Y-141.886
X66.693Y-146.016
X66.758Y-157.957
X66.978Y-161.177
X67.018Y-179.166
X67.11Y-166.05
X67.193Y-175.191
X67.435Y-171.561
X67.657Y-129.907
X67.693Y-133.916
X67.738Y-172.066
X67.768Y-171.066
X67.968Y-146.066
X68.118Y-164.716
X68.12Y-168.91
X68.143Y-161.316
X68.25Y-168.25
X68.728Y-157.006
X68.791Y-175.13
X69.193Y-167.766
X69.243Y-160.026
X69.243Y-160.591
X69.268Y-157.591
X69.268Y-158.191
X69.277Y-176.815
X69.718Y-164.716
X69.818Y-178.066
X69.893Y-170.117
X69.893Y-171.816
X69.893Y-173.516
X69.943Y-159.992
X69.943Y-160.591
X69.968Y-157.591
X69.968Y-158.191
X70.038Y-130.147
X70.193Y-167.992
X70.268Y-175.649
X70.643Y-159.992
X70.643Y-160.591
X70.668Y-157.591
X70.668Y-158.191
X70.693Y-162.416
X70.738Y-167.016
X70.818Y-175.91
X70.943Y-149.191
X71.03Y-176.91
X71.318Y-168.066
X71.343Y-159.992
X71.343Y-160.591
X71.368Y-157.591
X71.368Y-158.191
X71.593Y-170.117
X71.593Y-171.816
X71.593Y-173.516
X71.743Y-177.691
X71.838Y-112.727
X71.878Y-115.326
X71.898Y-130.876
X72.043Y-159.992
X72.043Y-160.591
X72.068Y-157.591
X72.068Y-158.191
X72.118Y-162.677
X72.468Y-177.867
X73.208Y-163.487
X73.233Y-121.331
X73.293Y-170.117
X73.293Y-171.816
X73.293Y-173.516
X73.318Y-168.096
X73.418Y-146.916
X73.46Y-177.54
X73.493Y-164.242
X73.493Y-164.841
X73.738Y-129.006
X73.793Y-175.567
X73.828Y-115.386
X73.848Y-112.716
X74.068Y-179.016
X74.128Y-123.846
X74.168Y-164.242
X74.168Y-164.841
X74.173Y-124.631
X74.178Y-119.766
X74.368Y-127.291
X74.388Y-155.046
X74.728Y-122.776
X74.793Y-153.617
X74.818Y-149.091
X74.818Y-164.242
X74.818Y-164.841
X74.9Y-151.45
X74.968Y-138.221
X75.03Y-174.88
X75.408Y-121.156
X75.518Y-164.242
X75.518Y-164.841
X75.718Y-178.816
X75.743Y-175.041
X75.768Y-173.216
X75.843Y-140.142
X75.943Y-119.966
X76.018Y-154.516
X76.018Y-155.541
X76.133Y-166.735
X76.143Y-167.691
X76.168Y-177.841
X76.193Y-151.416
X76.358Y-134.126
X76.418Y-163.666
X76.418Y-175.391
X76.508Y-116.826
X76.568Y-119.966
X76.568Y-138.867
X76.693Y-167.216
X76.868Y-177.941
X76.978Y-125.556
X77.008Y-143.446
X77.042Y-152.661
X77.043Y-160.117
X77.043Y-160.916
X77.043Y-161.716
X77.068Y-158.216
X77.093Y-159.541
X77.138Y-112.636
X77.254Y-152.126
X77.298Y-153.689
X77.326Y-154.533
X77.388Y-137.596
X77.394Y-155.386
X77.443Y-174.367
X77.502Y-164.838
X77.618Y-152.572
X77.643Y-151.702
X77.668Y-147.317
X77.668Y-155.891
X77.668Y-156.491
X77.668Y-158.516
X77.692Y-157.793
X77.693Y-146.117
X77.707Y-157.091
X77.707Y-154.102
X77.743Y-154.93
X77.833Y-144.602
X77.866Y-149.781
X78.048Y-165.816
X78.064Y-164.962
X78.518Y-120.366
X78.618Y-138.166
X78.868Y-123.716
X79.03Y-136.329
X79.068Y-133.166
X79.174Y-163.023
X79.178Y-150.516
X79.193Y-149.916
X79.246Y-147.575
X79.256Y-164.474
X79.367Y-156.942
X79.515Y-122.554
X79.518Y-120.491
X79.618Y-132.566
X79.618Y-133.841
X79.618Y-135.091
X79.643Y-138.392
X79.643Y-156.416
X79.804Y-163.143
X79.818Y-157.659
X79.82Y-147.592
X79.856Y-153.266
X79.856Y-154.88
X79.898Y-152.266
X79.943Y-151.416
X79.968Y-156.996
X79.998Y-166.026
X80.093Y-149.766
X80.114Y-150.46
X80.172Y-153.801
X80.248Y-138.506
X80.353Y-155.182
X80.418Y-161.341
X80.431Y-153.268
X80.543Y-146.916
X80.543Y-147.791
X80.543Y-158.242
X80.548Y-157.571
X80.618Y-151.242
X80.618Y-152.716
X80.676Y-156.359
X80.68Y-150.357
X80.692Y-117.893
X80.718Y-152.08
X80.746Y-153.764
X80.801Y-149.784
X80.843Y-146.125
X80.843Y-164.566
X80.855Y-154.88
X80.9Y-117.35
X80.993Y-166.591
X81.018Y-168.826
X81.548Y-144.492
X81.667Y-167.856
X81.917Y-136.517
X81.918Y-135.066
X82.188Y-121.3
X82.245Y-167.863
X82.247Y-152.144
X82.268Y-149.766
X82.268Y-151.266
X82.298Y-163.302
X82.318Y-147.406
X82.418Y-159.541
X82.478Y-112.686
X82.506Y-138.767
X82.618Y-166.216
X82.629Y-151.714
X82.668Y-157.291
X82.723Y-163.716
X82.801Y-168.009
X82.943Y-149.766
X82.943Y-153.08
X82.993Y-119.966
X83.088Y-152.171
X83.188Y-163.066
X83.278Y-116.986
X83.293Y-124.466
X83.318Y-144.216
X83.318Y-149.242
X83.574Y-125.169
X83.643Y-119.966
X83.768Y-156.066
X83.99Y-122.72
X84.018Y-141.142
X84.141Y-149.241
X84.143Y-146.617
X84.537Y-142.297
X84.543Y-138.257
X84.568Y-133.716
X84.568Y-136.307
X84.636Y-135.718
X84.698Y-129.286
X84.794Y-150.595
X84.954Y-153.549
X85.043Y-157.266
X85.131Y-143.466
X85.368Y-150.566
X85.396Y-133.239
X85.443Y-142.541
X85.718Y-125.386
X85.781Y-153.606
X85.893Y-166.066
X85.95Y-150.59
X86.043Y-133.257
X86.108Y-165.096
X86.168Y-144.242
X86.243Y-164.341
X86.356Y-153.619
X86.368Y-155.036
X86.498Y-150.867
X86.568Y-131.242
X86.631Y-149.966
X86.768Y-152.242
X86.96Y-117.7
X86.968Y-127.891
X86.993Y-154.466
X87.0Y-120.741
X87.118Y-135.767
X87.118Y-137.466
X87.118Y-139.166
X87.118Y-140.867
X87.118Y-144.282
X87.212Y-131.325
X87.49Y-155.79
X87.618Y-127.891
X87.668Y-142.066
X87.668Y-147.766
X87.868Y-144.666
X87.978Y-155.346
X88.118Y-171.103
X88.118Y-171.754
X88.118Y-174.111
X88.118Y-174.766
X88.118Y-175.617
X88.118Y-176.266
X88.243Y-127.891
X88.368Y-163.056
X88.418Y-156.166
X88.502Y-173.681
X88.508Y-175.192
X88.54Y-176.66
X88.543Y-170.691
X88.543Y-172.166
X88.668Y-153.707
X88.681Y-144.609
X88.693Y-147.266
X88.735Y-130.737
X88.743Y-149.367
X88.818Y-135.767
X88.818Y-137.466
X88.818Y-139.166
X88.818Y-140.867
X89.098Y-133.232
X89.122Y-154.12
X89.143Y-120.091
X89.258Y-163.106
X89.275Y-154.674
X89.508Y-166.306
X89.509Y-167.514
X89.523Y-130.711
X89.648Y-112.546
X89.658Y-117.066
X89.658Y-133.066
X89.668Y-128.242
X89.787Y-155.036
X89.818Y-120.091
X89.958Y-179.11
X90.028Y-164.837
X90.028Y-165.487
X90.028Y-166.594
X90.028Y-167.249
X90.398Y-165.936
X90.408Y-154.936
X90.468Y-169.191
X90.468Y-170.691
X90.468Y-172.191
X90.468Y-173.766
X90.468Y-175.191
X90.468Y-176.691
X90.49Y-164.49
X90.493Y-147.117
X90.518Y-135.767
X90.518Y-137.466
X90.518Y-139.166
X90.518Y-140.867
X90.555Y-151.771
X91.193Y-150.841
X91.208Y-151.492
X91.316Y-120.316
X91.393Y-146.066
X91.418Y-149.966
X91.448Y-153.367
X91.448Y-154.367
X91.463Y-152.416
X91.768Y-122.477
X91.868Y-131.216
X92.018Y-130.642
X92.218Y-135.767
X92.218Y-137.466
X92.218Y-139.166
X92.218Y-140.867
X92.268Y-122.766
X92.468Y-147.416
X92.593Y-155.266
X92.738Y-149.661
X92.763Y-146.13
X92.768Y-122.239
X92.791Y-130.293
X92.807Y-143.606
X93.168Y-146.966
X93.318Y-165.916
X93.338Y-171.147
X93.378Y-178.006
X93.382Y-143.587
X93.818Y-145.276
X93.818Y-151.391
X93.818Y-152.791
X93.818Y-154.191
X93.868Y-117.806
X93.969Y-147.214
X94.168Y-143.666
X94.343Y-126.766
X94.343Y-127.291
X94.443Y-126.041
X94.568Y-144.53
X94.568Y-145.117
X94.568Y-146.066
X94.718Y-139.816
X94.768Y-121.716
X94.855Y-138.104
X94.968Y-128.867
X95.018Y-165.891
X95.118Y-136.892
X95.118Y-141.907
X95.218Y-151.391
X95.218Y-152.791
X95.218Y-154.191
X95.268Y-146.916
X95.293Y-137.716
X95.518Y-143.466
X95.693Y-169.191
X95.718Y-173.691
X95.718Y-176.691
X95.868Y-135.216
X95.868Y-146.766
X95.918Y-137.867
X96.018Y-133.316
X96.218Y-119.966
X96.328Y-112.546
X96.493Y-124.216
X96.498Y-117.056
X96.598Y-148.856
X96.618Y-151.391
X96.618Y-152.791
X96.618Y-154.191
X96.693Y-130.466
X96.718Y-145.266
X96.743Y-138.791
X96.818Y-119.966
X96.818Y-141.117
X97.055Y-121.953
X97.093Y-122.891
X97.518Y-147.766
X97.568Y-128.992
X97.668Y-164.341
X97.968Y-143.416
X98.018Y-124.266
X98.318Y-178.216
X98.468Y-141.617
X98.478Y-149.306
X98.493Y-175.349
X98.698Y-167.566
X98.721Y-143.219
X98.848Y-117.466
X98.852Y-146.514
X98.968Y-151.492
X98.978Y-152.326
X99.009Y-150.841
X99.028Y-123.136
X99.418Y-146.617
X99.418Y-178.216
X99.443Y-148.718
X100.182Y-124.366
X100.268Y-175.066
X100.432Y-167.583
X100.688Y-122.566
X100.768Y-117.841
X100.793Y-150.867
X100.828Y-120.276
X100.868Y-123.186
X100.968Y-175.117
X101.038Y-154.957
X101.368Y-177.367
X101.393Y-129.492
X101.788Y-177.78
X101.793Y-129.892
X101.868Y-175.141
X102.051Y-169.879
X102.093Y-172.666
X102.128Y-179.256
X102.138Y-173.656
X102.178Y-125.306
X102.178Y-126.756
X102.228Y-171.006
X102.418Y-169.367
X102.468Y-170.367
X102.468Y-175.117
X102.518Y-134.142
X102.528Y-173.207
X102.693Y-156.266
X102.718Y-152.367
X102.993Y-175.117
X102.998Y-112.616
X103.308Y-127.656
X103.328Y-124.447
X103.458Y-117.786
X103.918Y-152.367
X104.043Y-171.091
X104.343Y-156.316
X104.618Y-126.356
X104.738Y-177.776
X104.758Y-127.676
X105.03Y-126.866
X105.347Y-120.888
X105.358Y-124.136
X105.593Y-133.591
X105.593Y-134.242
X105.593Y-134.892
X105.593Y-135.492
X105.685Y-157.491
X105.688Y-126.866
X105.775Y-155.825
X105.918Y-140.666
X106.093Y-128.316
X106.108Y-126.356
X106.303Y-133.517
X106.418Y-134.886
X106.537Y-127.841
X106.848Y-120.886
X106.859Y-124.135
X106.893Y-139.941
X106.898Y-138.226
X106.95Y-156.975
X107.15Y-155.05
X107.187Y-127.841
X107.578Y-126.356
X107.643Y-128.316
X108.034Y-126.866
X108.348Y-120.896
X108.359Y-124.145
X108.568Y-134.887
X108.692Y-126.866
X108.788Y-136.306
X108.868Y-137.466
X108.918Y-139.267
X108.943Y-133.492
X109.068Y-126.391
X109.093Y-115.491
X109.225Y-158.124
X109.275Y-156.925
X109.3Y-155.67
X109.438Y-112.666
X109.593Y-115.166
X109.848Y-120.906
X109.859Y-124.155
X109.909Y-148.154
X109.918Y-149.941
X109.988Y-178.837
X110.048Y-148.714
X110.048Y-149.369
X110.068Y-117.714
X110.093Y-115.716
X110.593Y-115.141
X110.668Y-131.017
X110.668Y-135.941
X110.668Y-136.591
X110.768Y-120.441
X110.768Y-138.716
X111.068Y-115.491
X111.093Y-153.403
X111.193Y-151.192
X111.193Y-151.843
X111.368Y-135.966
X111.368Y-136.591
X111.418Y-138.767
X111.518Y-146.853
X111.543Y-120.716
X111.555Y-146.229
X111.628Y-162.944
X111.718Y-150.916
X111.718Y-152.117
X112.143Y-120.716
X112.543Y-118.341
X112.553Y-134.546
X112.843Y-120.891
X112.868Y-124.241
X113.148Y-156.917
X113.158Y-158.116
X113.168Y-147.316
X113.168Y-149.716
X113.168Y-150.916
X113.168Y-152.117
X113.168Y-148.517
X113.174Y-154.867
X113.188Y-159.316
X113.188Y-160.516
X113.268Y-155.716
X113.268Y-161.716
X113.281Y-164.534
X113.343Y-162.916
X113.568Y-146.266
X113.668Y-134.561
X113.693Y-147.593
X113.693Y-148.243
X113.718Y-149.993
X113.718Y-150.642
X113.749Y-154.867
X113.968Y-146.791
X114.018Y-162.9
X114.068Y-120.741
X114.218Y-145.666
X114.293Y-120.116
X114.348Y-114.926
X114.618Y-146.791
X114.728Y-134.546
X114.758Y-137.566
X114.843Y-145.266
X114.918Y-147.317
X116.188Y-112.576
X116.228Y-132.666
X116.256Y-164.526
X116.318Y-140.716
X116.318Y-147.316
X116.318Y-148.516
X116.318Y-152.116
X116.318Y-158.117
X116.318Y-159.316
X116.318Y-160.516
X116.318Y-161.716
X116.318Y-162.916
X116.318Y-149.717
X116.328Y-150.916
X116.593Y-145.516
X116.6Y-155.719
X116.6Y-156.916
X116.668Y-131.791
X116.684Y-154.519
X116.706Y-153.307
X116.843Y-149.992
X116.843Y-150.641
X116.893Y-159.591
X116.893Y-160.242
X116.893Y-161.992
X116.893Y-162.641
X117.243Y-133.624
X117.568Y-160.787
X117.568Y-161.445
X117.618Y-158.387
X117.618Y-159.046
X118.018Y-137.091
X118.025Y-161.797
X118.108Y-114.546
X118.131Y-160.524
X118.143Y-125.25
X118.143Y-126.241
X118.15Y-127.25
X118.188Y-128.496
X118.238Y-158.113
X118.258Y-159.324
X118.718Y-121.291
X118.793Y-131.142
X119.068Y-114.496
X119.07Y-158.15
X119.09Y-153.3
X119.09Y-154.52
X119.09Y-155.72
X119.09Y-156.919
X119.1Y-173.8
X119.118Y-128.487
X119.143Y-135.441
X119.877Y-152.923
X119.918Y-119.141
X120.323Y-152.477
X120.573Y-161.272
X120.618Y-117.791
X120.828Y-134.566
X121.028Y-112.916
X121.1Y-152.2
X121.33Y-148.75
X121.368Y-118.856
X121.5Y-154.45
X121.5Y-155.716
X121.5Y-156.919
X121.5Y-158.13
X121.98Y-148.51
X122.343Y-120.016
X122.61Y-148.51
X122.949Y-119.86
X122.968Y-117.966
X123.19Y-148.84
X123.367Y-160.117
X123.593Y-120.091
X123.781Y-159.398
X124.143Y-120.091
X124.194Y-160.117
X124.318Y-115.516
X124.558Y-112.906
X124.614Y-159.369
X124.618Y-118.191
X125.028Y-160.135
X125.043Y-163.591
X125.043Y-166.992
X125.168Y-164.591
X125.172Y-165.915
X125.193Y-165.242
X125.218Y-163.016
X125.393Y-167.466
X125.418Y-166.516
X125.436Y-164.081
X125.441Y-159.376
X125.668Y-162.591
X125.855Y-160.187
X126.066Y-154.13
X126.268Y-159.379
X126.543Y-134.017
X126.681Y-160.189
X126.868Y-115.516
X126.868Y-116.541
X127.068Y-120.016
X127.068Y-121.516
X127.068Y-123.016
X127.095Y-159.429
X127.568Y-160.12
X127.86Y-152.94
X127.993Y-159.391
X128.018Y-118.666
X128.07Y-149.69
X128.429Y-160.13
X128.868Y-159.416
X128.998Y-151.296
X129.068Y-155.441
X129.261Y-160.166
X129.418Y-115.266
X129.418Y-116.016
X129.418Y-116.841
X129.418Y-130.517
X129.418Y-132.017
X129.418Y-133.517
X130.628Y-112.856
X130.905Y-149.684
X130.905Y-150.63
X131.108Y-170.666
X131.143Y-120.016
X131.743Y-119.977
X132.314Y-120.041
X132.343Y-117.966
X132.695Y-144.904
X132.818Y-122.316
X132.818Y-122.916
X132.868Y-125.466
X133.002Y-143.538
X133.017Y-145.969
X133.034Y-145.368
X133.041Y-146.591
X133.041Y-151.384
X133.043Y-147.166
X133.043Y-150.141
X133.043Y-150.766
X133.068Y-142.966
X133.068Y-147.742
X133.068Y-148.316
X133.068Y-148.916
X133.068Y-149.566
X133.202Y-155.215
X133.343Y-126.391
X133.418Y-152.216
X133.768Y-122.291
X133.768Y-122.916
X133.806Y-142.466
X133.818Y-115.516
X133.898Y-112.846
X134.045Y-153.644
X134.118Y-118.041
X134.328Y-160.046
X134.336Y-178.796
X134.628Y-153.666
X134.658Y-168.957
X134.927Y-141.626
X135.018Y-144.191
X135.037Y-160.91
X135.079Y-150.037
X135.193Y-142.367
X135.198Y-172.346
X135.308Y-127.716
X135.314Y-146.051
X135.319Y-125.727
X135.393Y-161.454
X135.51Y-126.356
X135.51Y-127.087
X135.568Y-153.306
X135.693Y-160.742
X135.958Y-119.786
X136.03Y-161.454
X136.093Y-163.992
X136.293Y-130.466
X136.293Y-131.992
X136.368Y-160.941
X136.393Y-128.966
X136.518Y-136.446
X136.543Y-137.966
X136.568Y-155.416
X136.918Y-163.992
X137.193Y-163.391
X137.393Y-153.941
X137.488Y-169.076
X137.567Y-152.783
X137.568Y-149.441
X137.568Y-152.117
X137.793Y-163.416
X137.793Y-163.966
X137.863Y-161.166
X138.518Y-127.466
X138.528Y-143.966
X138.868Y-125.351
X138.868Y-126.081
X138.943Y-134.591
X138.968Y-143.465
X139.193Y-148.141
X139.218Y-144.466
X139.308Y-154.166
X139.318Y-127.851
X139.318Y-128.582
X139.318Y-129.226
X139.328Y-127.226
X139.445Y-126.092
X139.445Y-125.341
X139.518Y-134.591
X139.668Y-133.416
X140.068Y-140.416
X140.093Y-134.566
X140.093Y-136.642
X140.279Y-163.416
X140.281Y-164.391
X140.293Y-158.266
X140.293Y-159.016
X140.293Y-159.691
X140.355Y-161.479
X140.368Y-160.891
X140.373Y-127.431
X140.388Y-167.666
X140.618Y-130.886
X140.718Y-134.591
X140.718Y-140.416
X141.108Y-129.776
X141.293Y-132.666
X141.318Y-134.591
X141.918Y-155.737
X142.468Y-156.041
X142.758Y-170.796
X142.758Y-178.776
X142.878Y-129.707
X142.918Y-133.056
X143.108Y-156.346
X143.208Y-137.666
X143.218Y-142.041
X143.218Y-145.016
X143.218Y-147.991
X143.218Y-150.966
X143.218Y-140.267
X143.218Y-140.841
X143.218Y-142.642
X143.218Y-143.242
X143.218Y-143.816
X143.218Y-145.617
X143.218Y-146.216
X143.218Y-146.791
X143.218Y-148.591
X143.218Y-149.191
X143.218Y-149.766
X143.218Y-151.566
X143.243Y-141.416
X143.243Y-144.391
X143.243Y-147.367
X143.243Y-150.341
X143.468Y-120.486
T2
X41.618Y-165.677
X41.618Y-166.376
X42.278Y-165.666
X42.278Y-166.367
X42.878Y-155.906
X42.938Y-165.666
X42.938Y-166.367
X43.618Y-165.677
X43.618Y-166.376
X43.718Y-153.776
X44.518Y-153.776
X45.318Y-153.776
X46.188Y-153.786
X46.248Y-155.957
X48.058Y-164.237
X48.068Y-163.536
X48.768Y-165.897
X49.418Y-165.556
X49.418Y-166.356
X50.098Y-165.556
X50.098Y-166.356
X50.758Y-165.556
X50.758Y-166.356
X53.4Y-127.45
X55.164Y-164.796
X55.918Y-165.776
X56.578Y-165.766
X56.883Y-152.651
X57.258Y-165.766
X57.293Y-137.506
X57.918Y-165.756
X73.228Y-131.707
X73.298Y-132.457
X73.708Y-129.837
X73.708Y-130.636
X73.888Y-131.886
X74.543Y-130.642
X74.768Y-159.666
X74.843Y-157.291
X75.343Y-129.841
X76.143Y-130.642
X106.393Y-156.059
X106.853Y-155.599
X109.814Y-157.201
X109.814Y-157.851
X111.7Y-172.803
X112.5Y-172.814
X113.3Y-172.814
X114.1Y-172.814
X114.9Y-172.814
X115.7Y-172.814
X116.586Y-173.609
X118.999Y-176.911
X118.999Y-178.181
X120.56Y-173.1
X121.4Y-173.7
X122.66Y-120.785
X123.111Y-121.254
X123.3Y-122.8
X123.3Y-123.444
X123.3Y-124.093
X123.3Y-124.73
X123.571Y-121.714
X124.025Y-122.15
X124.333Y-178.689
X125.3Y-172.8
X125.475Y-121.94
X125.475Y-122.59
X126.018Y-121.516
X126.018Y-123.016
X126.372Y-124.943
X126.372Y-125.593
X127.068Y-124.516
X127.068Y-126.016
X129.243Y-126.016
X129.243Y-127.516
X129.418Y-129.017
X129.831Y-126.444
X129.831Y-127.093
X130.2Y-131.325
X130.398Y-127.943
X130.398Y-128.593
X130.5Y-127.25
X130.55Y-129.25
X130.67Y-131.77
X131.13Y-132.23
X131.565Y-132.69
T4
X59.055Y-126.561
X59.055Y-129.092
X60.325Y-131.631
X61.594Y-125.292
X61.594Y-129.092
X62.866Y-131.631
X64.135Y-129.092
X65.406Y-131.631
X66.675Y-129.092
X67.945Y-125.292
X67.945Y-131.631
X69.215Y-129.092
X70.484Y-126.553
X70.484Y-131.631
T6
X58.129Y-118.673
X60.67Y-118.673
X68.87Y-118.673
X71.411Y-118.673
T7
X44.698Y-139.826
X48.508Y-167.766
X52.318Y-139.826
X52.318Y-167.766
X56.128Y-167.766
X59.938Y-139.826
T8
X72.62Y-125.781
T9
X56.921Y-125.781
T10
X44.698Y-167.766
X59.938Y-167.766
T11
X41.918Y-116.716
X41.918Y-174.716
X44.993Y-124.767
X68.118Y-151.742
X80.521Y-128.314
X80.521Y-176.314
X113.521Y-128.314
X113.521Y-176.314
X138.918Y-116.716
X138.918Y-174.716
T3
X75.461Y-114.747G85X75.461Y-113.947
G05
X75.461Y-119.078G85X75.461Y-117.978
G05
X84.102Y-114.747G85X84.102Y-113.947
G05
X84.102Y-119.078G85X84.102Y-117.978
G05
X88.698Y-114.761G85X88.698Y-113.962
G05
X88.698Y-119.093G85X88.698Y-117.992
G05
X97.339Y-114.761G85X97.339Y-113.962
G05
X97.339Y-119.093G85X97.339Y-117.992
G05
T5
X102.118Y-115.159G85X102.118Y-116.359
G05
X102.118Y-120.86G85X102.118Y-122.66
G05
X116.618Y-115.159G85X116.618Y-116.359
G05
X116.618Y-120.86G85X116.618Y-122.66
G05
M30
