G04 #@! TF.GenerationSoftware,KiCad,Pcbnew,10.0.5*
G04 #@! TF.CreationDate,2026-08-16T19:04:20+05:30*
G04 #@! TF.ProjectId,cm4-baseboard,636d342d-6261-4736-9562-6f6172642e6b,1.1.1*
G04 #@! TF.SameCoordinates,Original*
G04 #@! TF.FileFunction,Soldermask,Bot*
G04 #@! TF.FilePolarity,Negative*
%FSLAX46Y46*%
G04 Gerber Fmt 4.6, Leading zero omitted, Abs format (unit mm)*
G04 Created by KiCad (PCBNEW 10.0.5) date 2026-08-16 19:04:20*
%MOMM*%
%LPD*%
G01*
G04 APERTURE LIST*
G04 Aperture macros list*
%AMRoundRect*
0 Rectangle with rounded corners*
0 $1 Rounding radius*
0 $2 $3 $4 $5 $6 $7 $8 $9 X,Y pos of 4 corners*
0 Add a 4 corners polygon primitive as box body*
4,1,4,$2,$3,$4,$5,$6,$7,$8,$9,$2,$3,0*
0 Add four circle primitives for the rounded corners*
1,1,$1+$1,$2,$3*
1,1,$1+$1,$4,$5*
1,1,$1+$1,$6,$7*
1,1,$1+$1,$8,$9*
0 Add four rect primitives between the rounded corners*
20,1,$1+$1,$2,$3,$4,$5,0*
20,1,$1+$1,$4,$5,$6,$7,0*
20,1,$1+$1,$6,$7,$8,$9,0*
20,1,$1+$1,$8,$9,$2,$3,0*%
%AMRotRect*
0 Rectangle, with rotation*
0 The origin of the aperture is its center*
0 $1 length*
0 $2 width*
0 $3 Rotation angle, in degrees counterclockwise*
0 Add horizontal line*
21,1,$1,$2,0,0,$3*%
%AMFreePoly0*
4,1,5,0.300000,-0.300000,-0.300000,-0.300000,-0.300000,0.300000,0.300000,0.300000,0.300000,-0.300000,0.300000,-0.300000,$1*%
%AMFreePoly1*
4,1,21,1.372500,0.787500,0.862500,0.787500,0.862500,0.532500,1.372500,0.532500,1.372500,0.127500,0.862500,0.127500,0.862500,-0.127500,1.372500,-0.127500,1.372500,-0.532500,0.862500,-0.532500,0.862500,-0.787500,1.372500,-0.787500,1.372500,-1.195000,0.612500,-1.195000,0.612500,-1.117500,-0.862500,-1.117500,-0.862500,1.117500,0.612500,1.117500,0.612500,1.195000,1.372500,1.195000,
1.372500,0.787500,1.372500,0.787500,$1*%
G04 Aperture macros list end*
%ADD10C,3.250000*%
%ADD11C,1.397000*%
%ADD12C,1.524000*%
%ADD13C,2.100000*%
%ADD14C,2.108200*%
%ADD15C,1.450000*%
%ADD16C,6.000000*%
%ADD17C,0.650000*%
%ADD18O,1.050000X2.100000*%
%ADD19O,1.000000X2.000000*%
%ADD20R,2.540000X2.540000*%
%ADD21C,2.540000*%
%ADD22O,1.500000X2.700000*%
%ADD23O,1.500000X3.300000*%
%ADD24R,0.400000X0.510000*%
%ADD25RoundRect,0.147500X0.172500X-0.147500X0.172500X0.147500X-0.172500X0.147500X-0.172500X-0.147500X0*%
%ADD26RoundRect,0.300000X-0.350000X0.300000X-0.350000X-0.300000X0.350000X-0.300000X0.350000X0.300000X0*%
%ADD27RoundRect,0.160000X0.240000X0.340000X-0.240000X0.340000X-0.240000X-0.340000X0.240000X-0.340000X0*%
%ADD28RoundRect,0.125000X-0.175000X0.125000X-0.175000X-0.125000X0.175000X-0.125000X0.175000X0.125000X0*%
%ADD29RoundRect,0.147500X0.147500X0.172500X-0.147500X0.172500X-0.147500X-0.172500X0.147500X-0.172500X0*%
%ADD30RoundRect,0.147500X-0.147500X-0.172500X0.147500X-0.172500X0.147500X0.172500X-0.147500X0.172500X0*%
%ADD31RoundRect,0.050000X0.237500X-0.100000X0.237500X0.100000X-0.237500X0.100000X-0.237500X-0.100000X0*%
%ADD32RoundRect,0.135000X-1.265000X0.540000X-1.265000X-0.540000X1.265000X-0.540000X1.265000X0.540000X0*%
%ADD33RoundRect,0.300000X0.300000X0.350000X-0.300000X0.350000X-0.300000X-0.350000X0.300000X-0.350000X0*%
%ADD34RoundRect,0.147500X-0.172500X0.147500X-0.172500X-0.147500X0.172500X-0.147500X0.172500X0.147500X0*%
%ADD35RoundRect,0.125000X0.125000X0.175000X-0.125000X0.175000X-0.125000X-0.175000X0.125000X-0.175000X0*%
%ADD36RoundRect,0.160000X-0.240000X-0.340000X0.240000X-0.340000X0.240000X0.340000X-0.240000X0.340000X0*%
%ADD37RoundRect,0.300000X0.350000X-0.300000X0.350000X0.300000X-0.350000X0.300000X-0.350000X-0.300000X0*%
%ADD38RoundRect,0.100000X-0.800000X0.400000X-0.800000X-0.400000X0.800000X-0.400000X0.800000X0.400000X0*%
%ADD39RoundRect,0.160000X0.340000X-0.240000X0.340000X0.240000X-0.340000X0.240000X-0.340000X-0.240000X0*%
%ADD40R,0.700000X1.200000*%
%ADD41C,0.750000*%
%ADD42RoundRect,0.250000X2.450000X-0.650000X2.450000X0.650000X-2.450000X0.650000X-2.450000X-0.650000X0*%
%ADD43RoundRect,0.097500X0.827500X-0.227500X0.827500X0.227500X-0.827500X0.227500X-0.827500X-0.227500X0*%
%ADD44RoundRect,0.125000X0.175000X-0.125000X0.175000X0.125000X-0.175000X0.125000X-0.175000X-0.125000X0*%
%ADD45RoundRect,0.300000X0.300000X-0.300000X0.300000X0.300000X-0.300000X0.300000X-0.300000X-0.300000X0*%
%ADD46RoundRect,0.075000X-0.525000X0.075000X-0.525000X-0.075000X0.525000X-0.075000X0.525000X0.075000X0*%
%ADD47RoundRect,0.135000X-1.365000X1.215000X-1.365000X-1.215000X1.365000X-1.215000X1.365000X1.215000X0*%
%ADD48RoundRect,0.050000X0.100000X0.237500X-0.100000X0.237500X-0.100000X-0.237500X0.100000X-0.237500X0*%
%ADD49C,1.100000*%
%ADD50C,1.600000*%
%ADD51R,1.550000X0.300000*%
%ADD52R,2.750000X1.200000*%
%ADD53R,0.510000X0.400000*%
%ADD54RoundRect,0.125000X0.125000X-0.137500X0.125000X0.137500X-0.125000X0.137500X-0.125000X-0.137500X0*%
%ADD55RoundRect,0.062500X0.187500X-0.062500X0.187500X0.062500X-0.187500X0.062500X-0.187500X-0.062500X0*%
%ADD56FreePoly0,90.000000*%
%ADD57R,0.600000X0.400000*%
%ADD58R,1.750000X0.700000*%
%ADD59R,1.000000X1.400000*%
%ADD60R,1.400000X1.000000*%
%ADD61R,1.500000X0.800000*%
%ADD62R,1.500000X1.300000*%
%ADD63R,1.500000X1.500000*%
%ADD64RoundRect,0.120000X0.580000X0.120000X-0.580000X0.120000X-0.580000X-0.120000X0.580000X-0.120000X0*%
%ADD65C,2.000000*%
%ADD66RoundRect,0.187600X0.482400X0.712400X-0.482400X0.712400X-0.482400X-0.712400X0.482400X-0.712400X0*%
%ADD67RoundRect,0.162500X0.600000X-0.162500X0.600000X0.162500X-0.600000X0.162500X-0.600000X-0.162500X0*%
%ADD68R,0.405000X0.990000*%
%ADD69FreePoly1,270.000000*%
%ADD70RoundRect,0.125000X-0.137500X-0.125000X0.137500X-0.125000X0.137500X0.125000X-0.137500X0.125000X0*%
%ADD71RoundRect,0.062500X-0.062500X-0.187500X0.062500X-0.187500X0.062500X0.187500X-0.062500X0.187500X0*%
%ADD72R,1.600000X0.350000*%
%ADD73R,0.350000X0.800000*%
%ADD74R,0.800000X0.350000*%
%ADD75RoundRect,0.143000X-2.607000X0.572000X-2.607000X-0.572000X2.607000X-0.572000X2.607000X0.572000X0*%
%ADD76FreePoly1,90.000000*%
%ADD77RoundRect,0.075000X0.175000X-0.075000X0.175000X0.075000X-0.175000X0.075000X-0.175000X-0.075000X0*%
%ADD78R,1.100000X0.300000*%
%ADD79R,1.320000X1.300000*%
%ADD80RoundRect,0.120000X0.120000X-0.580000X0.120000X0.580000X-0.120000X0.580000X-0.120000X-0.580000X0*%
%ADD81RotRect,1.800000X0.750000X315.000000*%
G04 APERTURE END LIST*
D10*
X70483512Y-122731000D03*
X59054512Y-122731000D03*
D11*
X70483512Y-131631000D03*
X69214512Y-129092000D03*
X67944512Y-131631000D03*
X66674512Y-129092000D03*
X65405512Y-131631000D03*
X64134512Y-129092000D03*
X62865512Y-131631000D03*
X61593512Y-129092000D03*
X60324512Y-131631000D03*
X59054512Y-129092000D03*
X70483512Y-126553000D03*
X67944512Y-125292000D03*
X61593512Y-125292000D03*
X59054512Y-126561000D03*
D12*
X71410512Y-118673000D03*
X68869512Y-118673000D03*
X60669512Y-118673000D03*
X58128512Y-118673000D03*
D13*
X72619512Y-125781000D03*
D14*
X56920512Y-125781000D03*
D15*
X139818962Y-152616500D03*
X139818962Y-138815500D03*
D16*
X113520961Y-176314000D03*
D17*
X82671962Y-118028000D03*
X76890962Y-118028000D03*
D18*
X84101962Y-118528000D03*
D19*
X84101962Y-114347000D03*
D18*
X75460962Y-118528000D03*
D19*
X75460962Y-114347000D03*
D20*
X59937962Y-139826500D03*
D21*
X52317962Y-139826500D03*
X44697962Y-139826500D03*
X44697962Y-167766500D03*
X48507962Y-167766500D03*
X52317962Y-167766500D03*
X56127962Y-167766500D03*
X59937962Y-167766500D03*
D17*
X95908962Y-118042500D03*
X90127962Y-118042500D03*
D18*
X97338962Y-118542500D03*
D19*
X97338962Y-114361500D03*
D18*
X88697962Y-118542500D03*
D19*
X88697962Y-114361500D03*
D16*
X80520961Y-176314000D03*
X113520961Y-128314000D03*
X80520961Y-128314000D03*
D22*
X102117962Y-115759500D03*
D23*
X102117962Y-121760500D03*
D22*
X116617962Y-115759500D03*
D23*
X116617962Y-121760500D03*
D24*
X86000000Y-119439500D03*
X86998000Y-119439500D03*
X86500000Y-120741500D03*
D25*
X119117962Y-134746500D03*
X119117962Y-133786500D03*
D26*
X63512962Y-164941500D03*
X63512962Y-167141500D03*
D27*
X101867962Y-176496500D03*
X100467962Y-176496500D03*
D28*
X98342962Y-176140500D03*
X98342962Y-177540500D03*
D29*
X65722962Y-175291500D03*
X64762962Y-175291500D03*
D30*
X86787962Y-163756500D03*
X87747962Y-163756500D03*
D29*
X113447962Y-131986500D03*
X112487962Y-131986500D03*
D28*
X135717962Y-147965500D03*
X135717962Y-149365500D03*
D31*
X89118462Y-176191500D03*
X89118462Y-175691500D03*
X89118462Y-175191500D03*
X89118462Y-174691500D03*
X89118462Y-174191500D03*
X89893462Y-174191500D03*
X89893462Y-174691500D03*
X89893462Y-175191500D03*
X89893462Y-175692500D03*
X89893462Y-176191500D03*
D32*
X69512962Y-163536500D03*
X69512962Y-165886500D03*
X113627962Y-133386500D03*
X113627962Y-135736500D03*
D33*
X69242962Y-167766500D03*
X67042962Y-167766500D03*
D29*
X51472962Y-169916500D03*
X50512962Y-169916500D03*
D34*
X52146694Y-154919922D03*
X52146694Y-155879922D03*
D30*
X52362962Y-159391500D03*
X53322962Y-159391500D03*
D35*
X114293962Y-119466500D03*
X112893962Y-119466500D03*
D26*
X50742962Y-155266500D03*
X50742962Y-157466500D03*
D36*
X73617962Y-165891500D03*
X75017962Y-165891500D03*
D37*
X72117962Y-165941500D03*
X72117962Y-163741500D03*
D34*
X56167962Y-152936500D03*
X56167962Y-153896500D03*
D37*
X67717962Y-159216500D03*
X67717962Y-157016500D03*
D30*
X63312962Y-161216500D03*
X64272962Y-161216500D03*
D38*
X125730000Y-173756000D03*
X125730000Y-176256000D03*
D34*
X78617962Y-146036500D03*
X78617962Y-146996500D03*
D39*
X40100000Y-163400000D03*
X40100000Y-162000000D03*
D34*
X134567962Y-146011500D03*
X134567962Y-146971500D03*
D29*
X87322962Y-122166500D03*
X86362962Y-122166500D03*
D27*
X59967962Y-116466500D03*
X58567962Y-116466500D03*
D25*
X118892962Y-120521500D03*
X118892962Y-119561500D03*
D29*
X54832962Y-153256500D03*
X53872962Y-153256500D03*
D40*
X111214962Y-134887500D03*
X110263962Y-134887500D03*
X109313962Y-134887500D03*
X109313962Y-132287500D03*
X110263962Y-132287500D03*
X111214962Y-132287500D03*
D25*
X107127962Y-133521500D03*
X107127962Y-132561500D03*
D16*
X68117962Y-151741500D03*
D37*
X65817962Y-159216500D03*
X65817962Y-157016500D03*
D25*
X80342962Y-136021500D03*
X80342962Y-135061500D03*
D41*
X55270000Y-152280000D03*
D42*
X55117962Y-148196500D03*
X55117962Y-143096500D03*
D43*
X59917962Y-134831500D03*
X59917962Y-136100500D03*
X53668962Y-136100500D03*
X53668962Y-134831500D03*
D30*
X43317962Y-158636500D03*
X44277962Y-158636500D03*
D29*
X79247962Y-152216500D03*
X78287962Y-152216500D03*
D44*
X135767962Y-146942500D03*
X135767962Y-145542500D03*
D26*
X48867962Y-155266500D03*
X48867962Y-157466500D03*
D29*
X45812962Y-161837500D03*
X44852962Y-161837500D03*
D45*
X56767962Y-116592500D03*
X56767962Y-113793500D03*
D30*
X84187962Y-124666500D03*
X85147962Y-124666500D03*
D16*
X41917962Y-174716500D03*
X138917962Y-116716500D03*
D39*
X117867962Y-135741500D03*
X117867962Y-134341500D03*
D46*
X137467962Y-123466500D03*
X137467962Y-123966500D03*
X137467962Y-124466500D03*
X137467962Y-124966500D03*
X137467962Y-125466500D03*
X137467962Y-125966500D03*
X137467962Y-126466500D03*
X137467962Y-126966500D03*
X137467962Y-127466500D03*
X137467962Y-127966500D03*
X137467962Y-128466500D03*
X137467962Y-128966500D03*
X137467962Y-129466500D03*
X137467962Y-129966500D03*
X137467962Y-130466500D03*
X137467962Y-130966500D03*
X137467962Y-131466500D03*
X137467962Y-131966500D03*
X137467962Y-132466500D03*
X137467962Y-132966500D03*
X137467962Y-133466500D03*
X137467962Y-133966500D03*
X137467962Y-134466500D03*
X137467962Y-134966500D03*
X137467962Y-135466500D03*
X137467962Y-135964500D03*
X137467962Y-136464500D03*
X137467962Y-136965500D03*
X137467962Y-137465500D03*
X137467962Y-137965500D03*
X137467962Y-138465500D03*
X137467962Y-138965500D03*
X137467962Y-139465500D03*
X137467962Y-139964500D03*
X137467962Y-140464500D03*
X137467962Y-140964500D03*
X137467962Y-141465500D03*
X137467962Y-141965500D03*
X137467962Y-142465500D03*
X137467962Y-142965500D03*
X137467962Y-143465500D03*
X137467962Y-143965500D03*
X137467962Y-144465500D03*
X137467962Y-144965500D03*
X137467962Y-145465500D03*
X137467962Y-145965500D03*
X137467962Y-146465500D03*
X137467962Y-146965500D03*
X137467962Y-147465500D03*
X137467962Y-147965500D03*
D47*
X139317962Y-121518500D03*
X139317962Y-149914500D03*
D48*
X111092962Y-117104000D03*
X110592962Y-117104000D03*
X110092962Y-117104000D03*
X109592962Y-117104000D03*
X109092962Y-117104000D03*
X109092962Y-116329000D03*
X109592962Y-116329000D03*
X110092962Y-116329000D03*
X110593962Y-116329000D03*
X111092962Y-116329000D03*
D27*
X114327962Y-115986500D03*
X112927962Y-115986500D03*
D49*
X122893962Y-134767000D03*
D50*
X122893962Y-114770000D03*
D51*
X128167962Y-134017000D03*
X120619962Y-133770000D03*
X128167962Y-133520000D03*
X120619962Y-133270000D03*
X128167962Y-133020000D03*
X120619962Y-132768000D03*
X128167962Y-132519000D03*
X120619962Y-132269000D03*
X128167962Y-132019000D03*
X120619962Y-131769000D03*
X128167962Y-131519000D03*
X120619962Y-131269000D03*
X128167962Y-131019000D03*
X120619962Y-130769000D03*
X128167962Y-130519000D03*
X120619962Y-130269000D03*
X128167962Y-130019000D03*
X120619962Y-129769000D03*
X128167962Y-129519000D03*
X120619962Y-129269000D03*
X128167962Y-129019000D03*
X120619962Y-128769000D03*
X128167962Y-128518000D03*
X120619962Y-128268000D03*
X128167962Y-128018000D03*
X120619962Y-127768000D03*
X128167962Y-127518000D03*
X120619962Y-127268000D03*
X128167962Y-127018000D03*
X120619962Y-126768000D03*
X128167962Y-126519000D03*
X120619962Y-126269000D03*
X128167962Y-126019000D03*
X120619962Y-125769000D03*
X128167962Y-125518000D03*
X120619962Y-125268000D03*
X128167962Y-125018000D03*
X120619962Y-124768000D03*
X128167962Y-124519000D03*
X120619962Y-124269000D03*
X128167962Y-124019000D03*
X120619962Y-123769000D03*
X128167962Y-123518000D03*
X120619962Y-123268000D03*
X128167962Y-123018000D03*
X120619962Y-122768000D03*
X128167962Y-122518000D03*
X120619962Y-122268000D03*
X128167962Y-122018000D03*
X120619962Y-121768000D03*
X128167962Y-121518000D03*
X120619962Y-121268000D03*
X128167962Y-121018000D03*
X120619962Y-120768000D03*
X128167962Y-120519000D03*
X120619962Y-120269000D03*
X128167962Y-120019000D03*
X120619962Y-119769000D03*
X128167962Y-117519000D03*
X120619962Y-117269000D03*
X128167962Y-117019000D03*
X120619962Y-116769000D03*
X128167962Y-116520000D03*
X120619962Y-116270000D03*
X128167962Y-116020000D03*
X120619962Y-115770000D03*
X128167962Y-115520000D03*
D52*
X127392962Y-135119000D03*
X127392962Y-114418000D03*
D53*
X73692962Y-151116500D03*
X73692962Y-150118500D03*
X74994962Y-150616500D03*
D37*
X56667962Y-159336500D03*
X56667962Y-157136500D03*
D29*
X52997962Y-161814500D03*
X52037962Y-161814500D03*
D30*
X71447962Y-128956500D03*
X72407962Y-128956500D03*
D54*
X98567962Y-170879000D03*
D55*
X98567962Y-170241500D03*
X98567962Y-169741500D03*
D54*
X98567962Y-169104000D03*
X99467962Y-169104000D03*
D55*
X99467962Y-169741500D03*
X99467962Y-170241500D03*
D54*
X99467962Y-170879000D03*
D31*
X89118462Y-170178500D03*
X89118462Y-169678500D03*
X89118462Y-169178500D03*
X89118462Y-168678500D03*
X89118462Y-168178500D03*
X89893462Y-168178500D03*
X89893462Y-168678500D03*
X89893462Y-169178500D03*
X89893462Y-169679500D03*
X89893462Y-170178500D03*
D29*
X85147962Y-123716500D03*
X84187962Y-123716500D03*
D16*
X44992962Y-124767000D03*
D29*
X89222962Y-123141500D03*
X88262962Y-123141500D03*
D41*
X76792962Y-135041500D03*
D56*
X59194962Y-164418500D03*
D57*
X59194962Y-163668500D03*
D56*
X59194962Y-162921500D03*
X61093962Y-162921500D03*
D57*
X61093962Y-163668500D03*
D56*
X61093962Y-164418500D03*
D30*
X84457962Y-164136500D03*
X85417962Y-164136500D03*
D58*
X139054462Y-166690500D03*
X139054462Y-165590500D03*
X139054462Y-164491500D03*
X139054462Y-163390500D03*
X139054462Y-162290500D03*
X139054462Y-161191500D03*
X139054462Y-160090500D03*
X139054462Y-158990500D03*
D59*
X129750462Y-157891500D03*
D60*
X128269462Y-168990500D03*
D61*
X131320462Y-157590500D03*
D62*
X138929462Y-157790500D03*
D63*
X138929462Y-169141500D03*
D61*
X130670462Y-169440500D03*
D29*
X53342962Y-169916500D03*
X52382962Y-169916500D03*
D30*
X92057962Y-152416500D03*
X93017962Y-152416500D03*
D25*
X42327962Y-157616500D03*
X42327962Y-156656500D03*
D16*
X138917962Y-174716500D03*
D30*
X74862962Y-136016500D03*
X75822962Y-136016500D03*
D36*
X69217962Y-159166500D03*
X70617962Y-159166500D03*
D25*
X118892962Y-118621500D03*
X118892962Y-117661500D03*
D29*
X126880000Y-169050000D03*
X125920000Y-169050000D03*
D30*
X89897962Y-152416500D03*
X90857962Y-152416500D03*
D29*
X60147962Y-161880500D03*
X59187962Y-161880500D03*
D30*
X52036962Y-165414500D03*
X52996962Y-165414500D03*
D34*
X92067962Y-128861500D03*
X92067962Y-129821500D03*
D56*
X44869962Y-164382500D03*
D57*
X44869962Y-163632500D03*
D56*
X44869962Y-162885500D03*
X46768962Y-162885500D03*
D57*
X46768962Y-163632500D03*
D56*
X46768962Y-164382500D03*
D25*
X99442962Y-175271500D03*
X99442962Y-174311500D03*
D35*
X114293962Y-117266500D03*
X112893962Y-117266500D03*
D31*
X126080462Y-165091500D03*
X126080462Y-164591500D03*
X126080462Y-164091500D03*
X126080462Y-163591500D03*
X126080462Y-163091500D03*
X126855462Y-163091500D03*
X126855462Y-163591500D03*
X126855462Y-164091500D03*
X126855462Y-164592500D03*
X126855462Y-165091500D03*
D64*
X61367962Y-113896500D03*
X61367962Y-116436500D03*
X65067962Y-113896500D03*
X65067962Y-116436500D03*
D65*
X141400000Y-113000000D03*
D29*
X63972962Y-163191500D03*
X63012962Y-163191500D03*
D66*
X41897962Y-154786500D03*
X39038962Y-154786500D03*
D29*
X72422962Y-129936500D03*
X71462962Y-129936500D03*
D25*
X76450000Y-153150000D03*
X76450000Y-152190000D03*
D67*
X123237000Y-174371000D03*
X123237000Y-175641000D03*
X123237000Y-176908000D03*
X123237000Y-178178000D03*
X117811000Y-178178000D03*
X117811000Y-176908000D03*
X117811000Y-175641000D03*
X117811000Y-174371000D03*
D29*
X52967962Y-153256500D03*
X52007962Y-153256500D03*
D30*
X84457962Y-165096500D03*
X85417962Y-165096500D03*
D68*
X55927962Y-161880500D03*
X56585962Y-161880500D03*
X57247962Y-161880500D03*
X57905962Y-161880500D03*
D69*
X56917962Y-163873500D03*
D37*
X116217962Y-135816500D03*
X116217962Y-133616500D03*
D68*
X41612962Y-161844500D03*
X42270962Y-161844500D03*
X42932962Y-161844500D03*
X43590962Y-161844500D03*
D69*
X42602962Y-163837500D03*
D29*
X69317962Y-162136500D03*
X68357962Y-162136500D03*
D26*
X84667962Y-126016500D03*
X84667962Y-128216500D03*
D30*
X52362962Y-158426500D03*
X53322962Y-158426500D03*
D26*
X58617962Y-170216500D03*
X58617962Y-172416500D03*
X107617962Y-134836500D03*
X107617962Y-137036500D03*
D65*
X141914703Y-177662623D03*
D30*
X61637962Y-136116500D03*
X62597962Y-136116500D03*
D56*
X52044962Y-164366500D03*
D57*
X52044962Y-163616500D03*
D56*
X52044962Y-162869500D03*
X53943962Y-162869500D03*
D57*
X53943962Y-163616500D03*
D56*
X53943962Y-164366500D03*
D30*
X92057962Y-154366500D03*
X93017962Y-154366500D03*
D33*
X90727962Y-130736500D03*
X88527962Y-130736500D03*
D29*
X81297962Y-133791500D03*
X80337962Y-133791500D03*
D30*
X65937962Y-133916500D03*
X66897962Y-133916500D03*
D29*
X126880000Y-170000000D03*
X125920000Y-170000000D03*
D25*
X56167962Y-155796500D03*
X56167962Y-154836500D03*
D31*
X100693462Y-173678500D03*
X100693462Y-173178500D03*
X100693462Y-172678500D03*
X100693462Y-172178500D03*
X100693462Y-171678500D03*
X101468462Y-171678500D03*
X101468462Y-172178500D03*
X101468462Y-172678500D03*
X101468462Y-173179500D03*
X101468462Y-173678500D03*
D29*
X81297962Y-132516500D03*
X80337962Y-132516500D03*
D30*
X41377962Y-158638500D03*
X42337962Y-158638500D03*
D34*
X119142962Y-129286500D03*
X119142962Y-130246500D03*
D41*
X83500000Y-136000000D03*
D34*
X81292962Y-135061500D03*
X81292962Y-136021500D03*
X118117962Y-115286500D03*
X118117962Y-116246500D03*
D30*
X113337962Y-118366500D03*
X114297962Y-118366500D03*
D31*
X126080462Y-167991500D03*
X126080462Y-167491500D03*
X126080462Y-166991500D03*
X126080462Y-166491500D03*
X126080462Y-165991500D03*
X126855462Y-165991500D03*
X126855462Y-166491500D03*
X126855462Y-166991500D03*
X126855462Y-167492500D03*
X126855462Y-167991500D03*
D42*
X61067962Y-148196500D03*
X61067962Y-143096500D03*
D34*
X72550000Y-150156500D03*
X72550000Y-151116500D03*
D70*
X109200462Y-118476500D03*
D71*
X109837962Y-118476500D03*
X110337962Y-118476500D03*
D70*
X110975462Y-118476500D03*
X110975462Y-119376500D03*
D71*
X110337962Y-119376500D03*
X109837962Y-119376500D03*
D70*
X109200462Y-119376500D03*
D35*
X126301000Y-178700000D03*
X124901000Y-178700000D03*
D41*
X82617962Y-166216500D03*
D72*
X53615962Y-156314500D03*
X53615962Y-155316500D03*
D73*
X53417962Y-154366500D03*
X53917962Y-154366500D03*
X54415962Y-154366500D03*
X54915962Y-154366500D03*
D74*
X55116962Y-155316500D03*
D72*
X54717962Y-155816500D03*
D73*
X54915962Y-157265500D03*
X54415962Y-157265500D03*
X53917962Y-157265500D03*
X53417962Y-157265500D03*
D53*
X75450000Y-152400000D03*
X75450000Y-153398000D03*
X74148000Y-152900000D03*
D75*
X61242962Y-155171500D03*
X61242962Y-159210500D03*
D34*
X108077962Y-132561500D03*
X108077962Y-133521500D03*
D68*
X48776962Y-161871500D03*
X49434962Y-161871500D03*
X50096962Y-161871500D03*
X50754962Y-161871500D03*
D69*
X49766962Y-163864500D03*
D30*
X75962962Y-150616500D03*
X76922962Y-150616500D03*
D29*
X75822962Y-136991500D03*
X74862962Y-136991500D03*
D30*
X89907962Y-154366500D03*
X90867962Y-154366500D03*
D34*
X119142962Y-131836500D03*
X119142962Y-132796500D03*
D40*
X67109962Y-165047500D03*
X66158962Y-165047500D03*
X65208962Y-165047500D03*
X65208962Y-162447500D03*
X66158962Y-162447500D03*
X67109962Y-162447500D03*
D68*
X45607962Y-157602500D03*
X44949962Y-157602500D03*
X44287962Y-157602500D03*
X43629962Y-157602500D03*
D76*
X44617962Y-155609500D03*
D30*
X63012962Y-162236500D03*
X63972962Y-162236500D03*
D25*
X78492962Y-154121500D03*
X78492962Y-153161500D03*
D65*
X38855246Y-177608000D03*
D24*
X76142962Y-128916500D03*
X75144962Y-128916500D03*
X75642962Y-127614500D03*
D25*
X134617962Y-148921500D03*
X134617962Y-147961500D03*
D32*
X90667962Y-124641500D03*
X90667962Y-126991500D03*
D77*
X98492962Y-174892500D03*
X98492962Y-174192500D03*
D78*
X91312962Y-176687500D03*
X96809962Y-176687500D03*
X91312962Y-176187500D03*
X96809962Y-176187500D03*
X91312962Y-175687500D03*
X96809962Y-175687500D03*
X91312962Y-175187500D03*
X96809962Y-175187500D03*
X91312962Y-174687500D03*
X96809962Y-174687500D03*
X91312962Y-174187500D03*
X96809962Y-174187500D03*
X91312962Y-173687500D03*
X96809962Y-173687500D03*
X91312962Y-173187500D03*
X96809962Y-173187500D03*
X91312962Y-172687500D03*
X96809962Y-172687500D03*
X91312962Y-172187500D03*
X96809962Y-172187500D03*
X91312962Y-171687500D03*
X96809962Y-171687500D03*
X91312962Y-171187500D03*
X96809962Y-171187500D03*
X91312962Y-170687500D03*
X96809962Y-170687500D03*
X91312962Y-170187500D03*
X96809962Y-170187500D03*
X91312962Y-169688500D03*
X96809962Y-169688500D03*
X91312962Y-169188500D03*
X96809962Y-169188500D03*
X91312962Y-168688500D03*
X96809962Y-168688500D03*
X91312962Y-168188500D03*
X96809962Y-168188500D03*
X91312962Y-167687500D03*
X96809962Y-167687500D03*
X91312962Y-167187500D03*
X96809962Y-167187500D03*
D79*
X91499962Y-177888500D03*
X96619962Y-177888500D03*
X96619962Y-165986500D03*
X91499962Y-165981500D03*
D31*
X89118462Y-173178500D03*
X89118462Y-172678500D03*
X89118462Y-172178500D03*
X89118462Y-171678500D03*
X89118462Y-171178500D03*
X89893462Y-171178500D03*
X89893462Y-171678500D03*
X89893462Y-172178500D03*
X89893462Y-172679500D03*
X89893462Y-173178500D03*
D29*
X79247962Y-151241500D03*
X78287962Y-151241500D03*
D25*
X82542962Y-136021500D03*
X82542962Y-135061500D03*
D30*
X86000000Y-118400000D03*
X86960000Y-118400000D03*
D40*
X88264962Y-126917500D03*
X87313962Y-126917500D03*
X86363962Y-126917500D03*
X86363962Y-124317500D03*
X87313962Y-124317500D03*
X88264962Y-124317500D03*
D33*
X90717962Y-128866500D03*
X88517962Y-128866500D03*
D27*
X59942962Y-113891500D03*
X58542962Y-113891500D03*
D34*
X127300000Y-177720000D03*
X127300000Y-178680000D03*
D42*
X43292962Y-148196500D03*
X43292962Y-143096500D03*
D26*
X56717962Y-170216500D03*
X56717962Y-172416500D03*
D34*
X119092962Y-121986500D03*
X119092962Y-122946500D03*
D30*
X92057962Y-153391500D03*
X93017962Y-153391500D03*
D54*
X98567962Y-173429000D03*
D55*
X98567962Y-172791500D03*
X98567962Y-172291500D03*
D54*
X98567962Y-171654000D03*
X99467962Y-171654000D03*
D55*
X99467962Y-172291500D03*
X99467962Y-172791500D03*
D54*
X99467962Y-173429000D03*
D34*
X60417962Y-170276500D03*
X60417962Y-171236500D03*
D29*
X66697962Y-177191500D03*
X65737962Y-177191500D03*
X129747962Y-156541500D03*
X128787962Y-156541500D03*
D30*
X117320000Y-173000000D03*
X118280000Y-173000000D03*
X89907962Y-153391500D03*
X90867962Y-153391500D03*
D29*
X66697962Y-176241500D03*
X65737962Y-176241500D03*
D30*
X44852962Y-165437500D03*
X45812962Y-165437500D03*
D16*
X41917962Y-116716500D03*
D34*
X119067962Y-115286500D03*
X119067962Y-116246500D03*
D41*
X80550000Y-147900000D03*
D29*
X42337962Y-159586500D03*
X41377962Y-159586500D03*
D80*
X65187962Y-119716500D03*
X62647962Y-119716500D03*
X65187962Y-123416500D03*
X62647962Y-123416500D03*
D34*
X118192962Y-129286500D03*
X118192962Y-130246500D03*
D30*
X65212962Y-161216500D03*
X66172962Y-161216500D03*
X74862962Y-135056500D03*
X75822962Y-135056500D03*
D33*
X113542962Y-137596500D03*
X111342962Y-137596500D03*
D30*
X64762962Y-178166500D03*
X65722962Y-178166500D03*
D26*
X54842962Y-170216500D03*
X54842962Y-172416500D03*
D41*
X80650000Y-146900000D03*
D39*
X47217962Y-156716500D03*
X47217962Y-155316500D03*
D30*
X54262962Y-158416500D03*
X55222962Y-158416500D03*
D65*
X49898768Y-114740473D03*
D25*
X99417962Y-177446500D03*
X99417962Y-176486500D03*
D34*
X86000000Y-116470000D03*
X86000000Y-117430000D03*
X79667962Y-146011500D03*
X79667962Y-146971500D03*
D42*
X49192962Y-148196500D03*
X49192962Y-143096500D03*
D30*
X59312962Y-165480500D03*
X60272962Y-165480500D03*
D29*
X76622962Y-126616500D03*
X75662962Y-126616500D03*
D30*
X51062962Y-136116500D03*
X52022962Y-136116500D03*
X86362962Y-123141500D03*
X87322962Y-123141500D03*
D31*
X100693462Y-170878500D03*
X100693462Y-170378500D03*
X100693462Y-169878500D03*
X100693462Y-169378500D03*
X100693462Y-168878500D03*
X101468462Y-168878500D03*
X101468462Y-169378500D03*
X101468462Y-169878500D03*
X101468462Y-170379500D03*
X101468462Y-170878500D03*
D81*
X128266548Y-171205887D03*
X127205887Y-172266548D03*
M02*
